<svg width="1440" height="1024" viewBox="0 0 1440 1024" fill="none" xmlns="http://www.w3.org/2000/svg">
<g clip-path="url(#clip0_74_113)">
<rect width="1440" height="1037" fill="#0B021C"/>
<g filter="url(#filter0_f_74_113)">
<path d="M2209 847C2209 1133.08 1977.08 1365 1691 1365C1404.92 1365 1173 1133.08 1173 847C1173 560.917 1404.92 329 1691 329C1977.08 329 2209 560.917 2209 847Z" fill="#8243EA" fill-opacity="0.4"/>
</g>
<g filter="url(#filter1_f_74_113)">
<path d="M2520 1158C2520 1444.08 2288.08 1676 2002 1676C1715.92 1676 1484 1444.08 1484 1158C1484 871.917 1715.92 640 2002 640C2288.08 640 2520 871.917 2520 1158Z" fill="#8243EA" fill-opacity="0.2"/>
</g>
<rect opacity="0.34" x="-13" y="-12" width="369" height="1049" rx="50" fill="#D9D9D9"/>
</g>
<defs>
<filter id="filter0_f_74_113" x="506.083" y="-337.917" width="2369.83" height="2369.83" filterUnits="userSpaceOnUse" color-interpolation-filters="sRGB">
<feFlood flood-opacity="0" result="BackgroundImageFix"/>
<feBlend mode="normal" in="SourceGraphic" in2="BackgroundImageFix" result="shape"/>
<feGaussianBlur stdDeviation="333.459" result="effect1_foregroundBlur_74_113"/>
</filter>
<filter id="filter1_f_74_113" x="817.083" y="-26.9174" width="2369.83" height="2369.83" filterUnits="userSpaceOnUse" color-interpolation-filters="sRGB">
<feFlood flood-opacity="0" result="BackgroundImageFix"/>
<feBlend mode="normal" in="SourceGraphic" in2="BackgroundImageFix" result="shape"/>
<feGaussianBlur stdDeviation="333.459" result="effect1_foregroundBlur_74_113"/>
</filter>
<clipPath id="clip0_74_113">
<rect width="1440" height="1037" fill="white"/>
</clipPath>
</defs>
</svg>
